<svg width="369" height="144" viewBox="0 0 369 144" fill="none" xmlns="http://www.w3.org/2000/svg">
<g filter="url(#filter0_d_34_2398)">
<circle cx="185" cy="64" r="40" fill="white"/>
</g>
<g clip-path="url(#clip0_34_2398)">
<path d="M197.27 62.8957H206.704C206.851 62.8957 206.999 62.7486 206.999 62.6014C206.336 52.7419 199.186 44.5747 189.753 42.5145C189.532 42.4409 189.31 42.7352 189.532 42.9559C193.954 47.8857 196.754 54.9492 197.049 62.675C196.975 62.8221 197.123 62.8957 197.27 62.8957Z" fill="#091E42"/>
<path d="M185.184 42C185.11 42 185.037 42 184.963 42C184.889 42 184.816 42 184.742 42C179.067 46.3411 175.529 54.0669 175.161 62.602C175.161 62.7492 175.308 62.8963 175.455 62.8963H194.471C194.618 62.8963 194.765 62.7492 194.765 62.602C194.471 54.0669 190.859 46.3411 185.184 42Z" fill="#36B37E"/>
<path d="M175.455 65.1035C175.308 65.1035 175.161 65.2507 175.161 65.3978C175.529 74.0065 179.067 81.6587 184.742 85.9998C184.816 85.9998 184.889 85.9998 184.963 85.9998C185.037 85.9998 185.11 85.9998 185.184 85.9998C190.859 81.6587 194.397 73.9329 194.765 65.3978C194.765 65.2507 194.618 65.1035 194.471 65.1035H175.455Z" fill="#091E42"/>
<path d="M196.975 65.3243C196.681 73.05 193.954 80.1136 189.532 85.0433C189.384 85.2641 189.532 85.5584 189.753 85.4848C199.186 83.4246 206.409 75.2574 206.999 65.3978C206.999 65.2507 206.851 65.1035 206.704 65.1035H197.27C197.123 65.1035 196.975 65.2507 196.975 65.3243Z" fill="#36B37E"/>
<path d="M172.728 65.1035H163.294C163.147 65.1035 163 65.2507 163 65.3978C163.589 75.2574 170.812 83.4246 180.246 85.4848C180.467 85.5584 180.688 85.2641 180.467 85.0433C175.971 80.1136 173.244 73.05 172.949 65.3243C173.023 65.2507 172.876 65.1035 172.728 65.1035Z" fill="#36B37E"/>
<path d="M173.023 62.675C173.318 54.9492 176.045 47.8857 180.467 42.9559C180.614 42.7352 180.467 42.4409 180.246 42.5145C170.812 44.5747 163.589 52.7419 163 62.6014C163 62.7486 163.147 62.8957 163.294 62.8957H172.728C172.876 62.8957 173.023 62.8221 173.023 62.675Z" fill="#091E42"/>
</g>
<defs>
<filter id="filter0_d_34_2398" x="121" y="16" width="128" height="128" filterUnits="userSpaceOnUse" color-interpolation-filters="sRGB">
<feFlood flood-opacity="0" result="BackgroundImageFix"/>
<feColorMatrix in="SourceAlpha" type="matrix" values="0 0 0 0 0 0 0 0 0 0 0 0 0 0 0 0 0 0 127 0" result="hardAlpha"/>
<feOffset dy="16"/>
<feGaussianBlur stdDeviation="12"/>
<feColorMatrix type="matrix" values="0 0 0 0 0.145573 0 0 0 0 0.185183 0 0 0 0 0.5375 0 0 0 0.08 0"/>
<feBlend mode="normal" in2="BackgroundImageFix" result="effect1_dropShadow_34_2398"/>
<feBlend mode="normal" in="SourceGraphic" in2="effect1_dropShadow_34_2398" result="shape"/>
</filter>
<clipPath id="clip0_34_2398">
<rect width="44" height="44" fill="white" transform="translate(163 42)"/>
</clipPath>
</defs>
</svg>
